<?xml version="1.0" encoding="UTF-8"?>
<svg id="Capa_1" data-name="Capa 1" xmlns="http://www.w3.org/2000/svg" viewBox="0 0 235.04 113.27">
  <defs>
    <style>
      .cls-1 {
        fill: #fff7e1;
      }
    </style>
  </defs>
  <g>
    <path class="cls-1" d="M177.99,69.34h0c-.56.77-1.36,1.2-2.26,1.2h-4.93c-.9,0-1.7-.43-2.26-1.2-.44-.6-.66-1.33-.66-2.13s.23-1.53.67-2.13c.56-.77,1.36-1.2,2.26-1.2h4.93c.89,0,1.69.42,2.25,1.19.44.61.67,1.33.67,2.13s-.23,1.53-.66,2.13M180.51,63.25c-1.15-1.57-2.89-2.47-4.77-2.47h-4.93c-1.89,0-3.63.91-4.78,2.48-.82,1.14-1.26,2.51-1.26,3.96s.44,2.84,1.25,3.95c1.14,1.58,2.89,2.49,4.79,2.49h4.93c1.89,0,3.64-.91,4.78-2.48.82-1.14,1.26-2.5,1.26-3.96s-.43-2.82-1.26-3.97Z"/>
    <path class="cls-1" d="M123.29,65.77c.35-.3.69-.62,1.03-.95.34-.34.7-.7,1.07-1.09.17-.16.31-.36.44-.58.13-.23.2-.5.2-.81,0-.43-.11-.8-.34-1.1-.43-.58-1.11-.67-1.68-.02-.56.55-1.16,1.11-1.78,1.65-.61.53-1.26,1.02-1.92,1.44-.66.42-1.35.76-2.05,1.02-.69.25-1.41.38-2.13.38h-4.77v-3.36c0-.43-.11-.8-.34-1.1-.23-.31-.52-.47-.85-.47s-.6.16-.83.47c-.22.3-.34.67-.34,1.1v9.87c0,.43.11.8.34,1.1.23.31.52.47.85.47s.6-.16.83-.47c.22-.3.33-.67.33-1.1v-3.36h4.77c.72,0,1.44.12,2.13.37.7.25,1.39.58,2.04,1,.66.42,1.3.9,1.91,1.44.62.54,1.22,1.11,1.79,1.67.27.3.55.46.84.46.33,0,.62-.16.85-.47.22-.3.34-.67.34-1.1,0-.3-.07-.58-.2-.81-.12-.22-.27-.41-.43-.57-.37-.39-.73-.75-1.07-1.09-.35-.35-.7-.67-1.03-.95-.34-.29-.7-.57-1.06-.85-.29-.22-.61-.44-.94-.66.33-.22.64-.44.94-.66.36-.27.72-.55,1.06-.85"/>
    <path class="cls-1" d="M143.42,60.77h-14.65c-.33,0-.62.16-.85.47-.22.3-.33.67-.33,1.1s.11.8.33,1.1c.23.31.51.47.85.47h6.74c-.18.48-.32.98-.42,1.51-.12.62-.17,1.24-.17,1.85v4.94c0,.43.11.8.33,1.1.23.31.51.47.85.47s.62-.16.85-.47c.22-.3.33-.67.33-1.1v-4.94c0-.32.03-.68.08-1.08.05-.39.16-.75.31-1.08.14-.32.35-.6.6-.82.25-.22.58-.35.96-.38h4.3c.3-.05.55-.22.76-.52.21-.29.31-.65.31-1.05,0-.43-.11-.8-.34-1.1-.23-.31-.52-.47-.85-.47"/>
    <path class="cls-1" d="M149.05,63.92h11.14c.16.03.3.12.43.29.12.16.19.36.19.61,0,.43.11.8.34,1.1.23.31.51.47.85.47s.62-.16.85-.47c.22-.3.33-.67.33-1.1,0-.56-.08-1.09-.24-1.57-.16-.48-.39-.91-.67-1.27-.28-.36-.61-.66-.99-.87-.38-.22-.78-.32-1.2-.32h-11.13c-.34,0-.68.1-1.01.3-.33.19-.63.47-.88.81-.25.34-.46.76-.62,1.24-.16.48-.25,1.03-.25,1.63v7.46c0,.43.11.8.33,1.1.23.31.51.47.85.47s.6-.16.84-.47c.23-.3.35-.67.35-1.1v-3.36h4.19c.86,0,1.68.03,2.43.1.74.07,1.46.24,2.12.53.66.28,1.31.7,1.91,1.25.6.55,1.2,1.31,1.77,2.28.05.08.11.19.21.32.11.13.23.23.35.32.14.09.3.14.47.14.33,0,.62-.16.85-.47.22-.3.33-.67.33-1.1,0-.3-.08-.6-.23-.87-.52-1.03-1.11-1.92-1.77-2.64-.66-.72-1.41-1.3-2.24-1.75-.83-.44-1.77-.76-2.78-.96-1.01-.19-2.16-.29-3.42-.29h-4.19v-1.3c.02-.14.08-.25.17-.36.08-.09.19-.14.34-.14"/>
    <path class="cls-1" d="M88.86,72.22c0,.43-.11.8-.33,1.1-.23.32-.51.47-.84.47h-13.03c-.08,0-.16,0-.24-.01-.28-.02-.55-.08-.8-.19-1.04-.41-1.77-1.42-1.77-2.61v-9.04c0-.33.16-.61.47-.84.3-.22.67-.33,1.1-.33s.8.11,1.1.33c.32.23.47.51.47.84v7.53c0,.65.53,1.17,1.17,1.17h11.52c.33,0,.61.16.84.47.22.3.33.67.33,1.1"/>
    <path class="cls-1" d="M67.71,66.18c-.23-.31-.51-.47-.84-.47h-7.59c-.33,0-.61.16-.84.47-.22.3-.33.67-.33,1.1s.11.8.33,1.1c.23.31.51.47.84.47h7.59c.33,0,.61-.16.84-.47.22-.3.33-.67.33-1.1s-.11-.8-.33-1.1h0Z"/>
    <path class="cls-1" d="M69.94,71.12c-.23-.31-.51-.47-.84-.47h-6.76s-2.98,0-2.98,0c-.91,0-1.72-.43-2.28-1.21-.44-.6-.67-1.34-.67-2.15s.23-1.55.67-2.15c.57-.78,1.37-1.21,2.28-1.21h2.98s6.76,0,6.76,0c.33,0,.61-.16.84-.47.22-.3.33-.67.33-1.1s-.11-.8-.33-1.1h0c-.23-.31-.51-.47-.84-.47h-9.74c-1.91,0-3.67.91-4.83,2.51-.83,1.15-1.27,2.53-1.27,4s.44,2.87,1.26,3.99c1.15,1.6,2.92,2.52,4.84,2.52h2.98s6.76,0,6.76,0c.33,0,.61-.16.84-.47.22-.3.33-.67.33-1.1s-.11-.8-.33-1.1h0Z"/>
    <path class="cls-1" d="M104.87,66.18c-.23-.31-.51-.47-.84-.47h-7.59c-.33,0-.61.16-.84.47-.22.3-.33.67-.33,1.1s.11.8.33,1.1c.23.31.51.47.84.47h7.59c.33,0,.61-.16.84-.47.22-.3.33-.67.33-1.1s-.11-.8-.33-1.1h0Z"/>
    <path class="cls-1" d="M107.11,71.12c-.23-.31-.51-.47-.84-.47h-6.76s-2.98,0-2.98,0c-.91,0-1.72-.43-2.28-1.21-.44-.6-.67-1.34-.67-2.15s.23-1.55.67-2.15c.57-.78,1.37-1.21,2.28-1.21h2.98s6.76,0,6.76,0c.33,0,.61-.16.84-.47.22-.3.33-.67.33-1.1s-.11-.8-.33-1.1h0c-.23-.31-.51-.47-.84-.47h-9.74c-1.91,0-3.67.91-4.83,2.51-.83,1.15-1.27,2.53-1.27,4s.44,2.87,1.26,3.99c1.15,1.6,2.92,2.52,4.84,2.52h2.98s6.76,0,6.76,0c.33,0,.61-.16.84-.47.22-.3.33-.67.33-1.1s-.11-.8-.33-1.1h0Z"/>
    <path class="cls-1" d="M108.59,48.03h0s-5.95,0-5.95,0c-1.81,0-3.43-.86-4.56-2.42-.88-1.21-1.33-2.68-1.33-4.29s.46-3.09,1.34-4.3c1.13-1.56,2.74-2.41,4.55-2.41h5.95s4.35,0,4.35,0c0,0,0,0,0,0h.94l4.14-6.28h-15.38c-3.82,0-7.33,1.83-9.64,5.01-1.66,2.29-2.54,5.05-2.54,7.99s.89,5.72,2.52,7.96c2.31,3.2,5.82,5.03,9.66,5.03h5.95s3.78,0,3.78,0l2.61-6.28h-6.39Z"/>
    <path class="cls-1" d="M142.05,33.36c-2.31-3.2-5.82-5.03-9.66-5.03h-5.95s-4.35,0-4.35,0c0,0,0,0,0,0h-1.05l-2.32,6.28h7.73s5.95,0,5.95,0c1.81,0,3.43.86,4.56,2.42.88,1.21,1.33,2.68,1.33,4.29s-.46,3.09-1.34,4.3c-1.13,1.56-2.74,2.41-4.55,2.41h-5.95s-4.35,0-4.35,0c0,0,0,0,0,0h-1.87l-4.75,6.28h16.94c3.82,0,7.33-1.83,9.64-5.01,1.66-2.29,2.54-5.05,2.54-7.99s-.88-5.72-2.52-7.96"/>
    <path class="cls-1" d="M102.46,38.18c-.66,0-1.22.32-1.67.94-.44.6-.66,1.34-.66,2.2s.22,1.6.66,2.2c.45.63,1.02.94,1.67.94h4.94l4.13-6.28h-9.08Z"/>
    <path class="cls-1" d="M134.25,39.13c-.45-.63-1.02-.94-1.67-.94h-4.92l-4.75,6.28h9.67c.66,0,1.22-.32,1.67-.94.44-.6.66-1.34.66-2.2s-.22-1.6-.66-2.2"/>
    <polygon class="cls-1" points="117.91 44.46 109.01 44.46 119.63 28.33 115.99 38.18 126.02 38.18 113.82 54.32 117.91 44.46"/>
  </g>
  <polygon class="cls-1" points="85.85 77.4 91.47 77.4 91.47 78.81 87.51 78.81 87.51 80.44 91.07 80.44 91.07 81.86 87.51 81.86 87.51 83.53 91.47 83.53 91.47 84.94 85.85 84.94 85.85 77.4"/>
  <polygon class="cls-1" points="108.24 77.4 113.85 77.4 113.85 78.81 109.9 78.81 109.9 80.44 113.45 80.44 113.45 81.86 109.9 81.86 109.9 83.53 113.85 83.53 113.85 84.94 108.24 84.94 108.24 77.4"/>
  <polygon class="cls-1" points="101.79 77.4 103.42 77.4 103.42 84.94 101.85 84.94 98.16 80.09 98.16 84.94 96.51 84.94 96.51 77.4 98.08 77.4 101.79 82.27 101.79 77.4"/>
  <path class="cls-1" d="M120.55,81.36h1.54c.46,0,.82-.11,1.07-.33.25-.22.37-.54.37-.96s-.13-.73-.37-.94c-.25-.21-.61-.32-1.07-.32h-1.54v2.55ZM123.42,84.94l-1.17-2.16h-1.7v2.16h-1.67v-7.54h3.2c.96,0,1.71.23,2.23.68.53.46.79,1.1.79,1.93,0,.58-.12,1.08-.35,1.49-.24.41-.58.73-1.03.94l1.57,2.49h-1.89Z"/>
  <path class="cls-1" d="M135.63,81.14h1.44v2.84c-.39.29-.86.52-1.41.69-.55.18-1.07.27-1.58.27-.74,0-1.4-.17-2-.5-.6-.33-1.07-.78-1.41-1.36-.34-.57-.52-1.22-.52-1.93s.18-1.34.53-1.92c.35-.57.83-1.03,1.45-1.35.61-.33,1.3-.49,2.05-.49.55,0,1.08.1,1.61.29.52.19.97.46,1.35.79l-.94,1.18c-.27-.26-.59-.46-.95-.61-.36-.15-.72-.22-1.08-.22-.43,0-.82.1-1.17.31-.36.21-.63.48-.84.84-.2.35-.31.74-.31,1.18s.1.83.31,1.19c.21.36.49.64.84.85.36.21.75.31,1.18.31.22,0,.45-.04.71-.11.25-.07.5-.17.74-.3v-1.95Z"/>
  <polygon class="cls-1" points="149.19 77.4 146.5 82.5 146.5 84.94 144.83 84.94 144.83 82.55 142.1 77.4 143.78 77.4 145.67 80.78 147.51 77.4 149.19 77.4"/>
</svg>