<?xml version="1.0" encoding="UTF-8"?>
<svg id="Capa_1" data-name="Capa 1" xmlns="http://www.w3.org/2000/svg" viewBox="0 0 235.04 113.27">
  <defs>
    <style>
      .cls-1 {
        fill: #fff7e1;
      }
    </style>
  </defs>
  <polygon class="cls-1" points="72.13 52.57 63.86 29.96 63.59 29.21 64.4 29 88.75 22.75 64.88 30.47 65.42 29.51 72.13 52.57"/>
  <path class="cls-1" d="M162.66,59.48c1.62,3.88,3.06,7.81,4.48,11.74,1.42,3.94,2.7,7.91,4.06,11.86l.25.74-.79.22c-4.2,1.14-8.38,2.35-12.6,3.43-4.22,1.08-8.45,2.14-12.73,3.04,4.08-1.5,8.22-2.85,12.36-4.17,4.14-1.32,8.33-2.51,12.49-3.78l-.54.95c-1.23-3.99-2.53-7.96-3.7-11.97-1.17-4.01-2.31-8.02-3.28-12.09Z"/>
  <g>
    <path class="cls-1" d="M119.31,36.43l-16.92,35.52c1.84.12,4.76-.02,8.75-.4.92-.1,2.19-.36,3.81-.78-.31.87-.83,2.37-1.57,4.5-.41,1.21-.95,3.04-1.63,5.48h-27.73l8.29-27.12c-.74.04-2.14.12-4.21.23-1.52.1-3.59.34-6.23.72l-.68-18.15h38.11Z"/>
    <path class="cls-1" d="M138.75,72.48c-1.83,1.18-4.52.66-6.13-1.24-1.43-1.68-1.54-3.9-.41-5.37-1.54-1.85-1.51-4.33.01-5.75-.61-1.67-.21-3.48,1.18-4.52.74-.56,1.65-.8,2.58-.77-.05-1.23.44-2.39,1.45-3.15,1.83-1.37,4.67-.88,6.34,1.09.27.31.48.65.66.99,1.64.02,3,.17,4.07.48l-.98-18.09c-1.74-.42-4.56-.63-8.45-.63-8.09,0-14.42,2.17-19.01,6.52-4.3,4.08-6.45,9.43-6.45,16.04,0,7.16,2.5,12.96,7.49,17.43,4.61,4.1,10.15,6.15,16.65,6.15,3.58,0,6.52-.41,8.81-1.24.27-1.52.54-2.98.83-4.39.49-2.12.84-3.57,1.04-4.36-1.82.94-3.75,1.41-5.77,1.41-1.45,0-2.75-.21-3.93-.61Z"/>
  </g>
</svg>